PathFileType	4	(X/Y/Z)	C:/Users/opensim2020/Desktop/walking_exp_matlab/subject02_walking14_straight_02.trc																																																																																																																									
DataRate	CameraRate	NumFrames	NumMarkers	Units	OrigDataRate	OrigDataStartFrame	OrigNumFrames																																																																																																																					
100	100	6	41	mm	100	900	121																																																																																																																					
Frame#	Time	LFHD			RFHD			LBHD			RBHD			C7			T10			CLAV			STRN			RBAK			LSHO			LUPA			LELB			LFRM			LWRA			LWRB			LFIN			RSHO			RUPA			RELB			RFRM			RWRA			RWRB			RFIN			LASI			RASI			LPSI			RPSI			LTHI			LKNE			LTIB			LANK			LHEE			LTOE			RTHI			RKNE			RTIB			RANK			RHEE			RTOE			*39			*40		
		X1	Y1	Z1	X2	Y2	Z2	X3	Y3	Z3	X4	Y4	Z4	X5	Y5	Z5	X6	Y6	Z6	X7	Y7	Z7	X8	Y8	Z8	X9	Y9	Z9	X10	Y10	Z10	X11	Y11	Z11	X12	Y12	Z12	X13	Y13	Z13	X14	Y14	Z14	X15	Y15	Z15	X16	Y16	Z16	X17	Y17	Z17	X18	Y18	Z18	X19	Y19	Z19	X20	Y20	Z20	X21	Y21	Z21	X22	Y22	Z22	X23	Y23	Z23	X24	Y24	Z24	X25	Y25	Z25	X26	Y26	Z26	X27	Y27	Z27	X28	Y28	Z28	X29	Y29	Z29	X30	Y30	Z30	X31	Y31	Z31	X32	Y32	Z32	X33	Y33	Z33	X34	Y34	Z34	X35	Y35	Z35	X36	Y36	Z36	X37	Y37	Z37	X38	Y38	Z38	X39	Y39	Z39	X40	Y40	Z40	X41	Y41	Z41
																																																																																																																												
91	0.9	556.27893	1713.56311	1001.6712	563.02856	1705.69507	1145.07056	419.08618	1653.07361	1007.28033	412.9657	1645.01379	1149.80298	356.99622	1513.54846	1085.27942	313.76587	1234.74133	1112.07129	498.63849	1447.59656	1073.82971	557.91345	1280.64197	1097.76575	305.59744	1341.08606	1166.91687	419.94226	1473.31787	905.62238	385.56607	1274.0708	831.36206	365.95135	1136.14966	818.12982	355.58972	1006.3941	800.02612	393.08112	871.34674	822.32227	346.76889	883.05841	792.21014	354.54932	817.38086	785.28766	436.22916	1497.26514	1267.9436	429.01358	1322.5675	1381.11377	463.32077	1181.11963	1421.16541	528.00867	1078.24304	1438.29004	610.18323	973.54163	1414.73108	573.12378	956.6286	1453.3938	629.92096	911.94971	1452.66199	552.5127	977.38947	995.10968	536.62463	966.17102	1251.8385	337.43591	1018.72034	1062.1543	327.32632	1023.66748	1175.82031	561.65308	674.60583	931.46655	601.38879	480.42117	972.70416	594.67096	286.3436	994.77448	668.46838	73.38602	1024.34473	659.62036	42.92905	1086.57312	811.87128	74.28284	969.56378	406.45093	665.87585	1302.97559	362.34567	458.9379	1258.22485	283.23727	287.34631	1262.73926	229.34398	100.28168	1224.15759	187.72725	49.16183	1168.66931	374.58191	35.89059	1243.27405	467.17184	1795.67188	1090.82227	NaN	NaN	NaN
92	0.91	570.12775	1711.09985	1000.17249	576.6496	1703.34375	1143.27344	431.9332	1651.11206	1005.61316	426.43219	1643.12427	1148.41504	369.75958	1511.09155	1083.66528	327.24643	1232.29529	1110.33691	511.8866	1445.36877	1072.56787	571.23975	1278.57129	1097.07324	318.84363	1338.79614	1165.77563	433.33749	1470.54883	904.13574	397.00974	1271.19885	831.21924	374.47684	1134.25269	818.9856	359.23837	1005.78723	799.62006	390.85587	868.72638	819.92853	344.19537	883.09497	790.53986	348.22708	817.03027	783.11365	449.16058	1495.41711	1266.35938	443.55246	1321.53955	1380.64893	479.71021	1180.80286	1421.94751	547.61932	1079.78418	1438.76868	632.81781	977.76514	1414.5824	596.4223	959.76459	1453.39709	654.5094	916.79425	1452.25146	567.2049	974.58594	994.03821	549.63391	964.29297	1251.50354	351.48718	1015.51318	1060.52014	340.24878	1020.55853	1173.49622	574.61261	671.68848	930.1991	616.65802	477.83505	972.25604	617.98718	283.63287	992.53052	700.40277	73.32874	1020.76123	693.08002	41.94836	1083.35913	844.18335	80.19726	966.04895	415.07889	665.33203	1302.51575	368.59937	458.85141	1257.70898	286.36078	288.58484	1261.48547	230.19124	102.28112	1223.31128	188.5298	51.52366	1167.54541	374.36389	35.56247	1243.39294	481.18069	1793.73743	1089.21033	NaN	NaN	NaN
93	0.92	583.93103	1708.40527	998.55865	590.26001	1701.02356	1141.48975	445.66257	1649.07349	1004.10284	439.85638	1641.25317	1146.87549	382.95325	1508.93823	1082.36047	340.74603	1229.81372	1108.37939	524.64673	1442.97498	1071.32263	585.25769	1276.9043	1096.09802	332.18829	1336.28455	1163.86414	446.56943	1467.91431	902.46515	408.46829	1268.27124	831.0365	383.24036	1132.45728	819.93066	361.75211	1005.20166	799.67828	388.21881	867.01532	817.77539	342.16626	883.77087	789.26257	342.5148	817.61505	781.12012	461.95532	1493.50952	1264.74805	457.7298	1320.36548	1379.94714	495.71637	1180.37073	1422.33923	566.52991	1081.26062	1438.9657	654.96021	982.24683	1414.47839	619.0686	962.89807	1452.89807	678.60266	921.71527	1451.76135	582.10571	971.77905	992.8385	562.63257	962.60071	1251.0033	365.64844	1012.61963	1058.89807	353.35068	1017.62164	1171.11841	587.67871	669.20068	928.68512	632.04437	475.47827	971.61688	640.21881	281.72	989.9184	729.75665	73.9355	1017.02582	722.95276	41.86788	1078.80103	873.57104	85.32915	963.14569	424.21121	664.91455	1301.90222	375.88037	458.86508	1257.41125	290.17743	290.20795	1260.73254	231.39061	104.51073	1222.91089	189.72842	54.47891	1166.72571	374.68027	35.60808	1243.62634	494.88226	1791.47546	1087.22595	-2846.00342	1034.24292	3356.81421
94	0.93	596.63232	1706.19824	996.15265	603.85474	1698.75708	1139.53662	458.84891	1646.94812	1002.59723	453.21915	1639.59204	1145.21094	395.75369	1506.62732	1080.20825	354.30154	1227.49719	1106.32446	538.16052	1441.1908	1069.60779	598.37408	1275.0719	1094.89917	345.47348	1333.83521	1161.7749	459.72757	1465.41052	900.63092	418.92053	1265.56775	830.4967	392.64441	1130.78442	821.14594	366.28238	1005.59436	799.60254	386.47324	865.93799	815.979	341.21265	884.95929	787.93396	337.33218	818.90875	779.34174	474.67328	1491.55627	1263.08899	471.51721	1319.10938	1378.97095	511.28271	1179.9458	1422.53625	584.96948	1082.7854	1438.83203	676.29736	986.71033	1414.02832	640.96765	966.15265	1452.55273	701.76984	927.07416	1451.19849	597.26703	969.17505	991.63934	575.61914	961.05981	1250.28406	379.91525	1009.92206	1057.04236	366.87759	1014.94061	1168.66394	600.99713	666.92737	926.63324	647.36835	473.34967	970.81897	660.9201	280.19116	987.44269	755.92596	74.52521	1012.6507	748.96875	41.7044	1073.91028	900.20813	89.60413	960.98053	434.03723	664.70148	1301.32898	384.38602	458.92276	1257.60779	294.93652	291.97015	1260.41003	232.94437	107.21242	1223.06555	190.496	58.07022	1166.80737	374.9469	35.59742	1243.87781	508.74481	1789.32947	1085.22754	NaN	NaN	NaN
95	0.94	610.74628	1703.88464	994.73065	617.38171	1696.56946	1137.63281	472.09879	1645.29541	1000.80231	466.4968	1637.85413	1143.32483	409.03384	1504.69604	1078.44202	367.93475	1225.31409	1104.06238	551.35437	1439.37854	1067.87097	611.67944	1273.45532	1093.40637	358.97189	1331.27954	1158.74255	472.73169	1463.17822	898.69995	430.68839	1263.35693	829.89539	401.58832	1129.54736	821.46521	370.66525	1005.90118	799.54138	385.80615	865.18066	814.46899	341.08914	886.74994	786.99225	333.56372	820.66412	777.95898	487.00763	1489.97705	1261.23706	484.91531	1317.87439	1377.74023	526.41296	1179.52222	1422.49219	602.81287	1084.33911	1438.50476	696.95862	991.38086	1413.58044	662.21216	969.51324	1451.7627	724.22089	932.42657	1450.53174	612.72021	966.98663	990.31793	589.49457	959.6958	1249.47144	394.74469	1007.44495	1055.06348	380.81345	1012.59296	1166.10205	615.06995	665.09705	924.57831	662.8017	471.57062	969.90637	679.91345	278.82278	985.04431	778.94794	74.71117	1009.0957	771.60583	40.89715	1070.3728	923.86108	92.35034	959.448	444.67734	664.64545	1300.87927	393.87317	458.97314	1258.26343	300.70441	293.93652	1260.54797	234.77867	110.35273	1223.49915	191.73787	62.39929	1167.04395	375.45819	35.66319	1244.28357	522.66339	1787.78271	1083.49915	-2845.22681	1034.36987	3360.28931
96	0.95	623.43427	1701.81067	992.42719	630.96997	1694.24854	1135.65308	484.95901	1643.90527	998.61438	479.72107	1636.16125	1141.35059	421.81219	1502.80847	1076.11536	381.68857	1223.18896	1101.73962	564.31512	1437.5481	1066.04309	625.39801	1272.1897	1091.76904	372.04041	1329.21387	1156.99829	485.83667	1461.15906	896.61047	440.97464	1261.51758	828.87152	411.04053	1128.6488	822.11401	377.0816	1006.73218	799.24542	386.36569	865.12628	812.99573	341.88721	888.98407	786.34595	331.07425	823.64362	776.80688	499.38907	1488.34351	1259.22107	497.90256	1316.60718	1376.1626	541.15613	1179.09436	1422.026	619.90521	1085.92773	1437.89209	717.09576	996.11426	1413.08289	682.72339	972.95624	1451.05139	745.84058	937.8924	1449.79871	628.35645	965.12054	988.99158	603.34723	958.78021	1248.57861	409.53656	1005.13519	1052.47839	395.17886	1010.49164	1163.45874	629.5777	663.50452	922.89954	678.53168	470.05124	968.84363	697.44214	277.35336	982.33264	798.71625	74.2232	1006.08905	790.95721	40.11385	1066.69702	944.40265	93.39981	958.74762	456.2189	664.6087	1300.51929	404.40402	459.02551	1259.00781	307.36743	296.08298	1261.07898	236.983	114.01007	1224.31213	192.84854	67.46243	1167.75732	375.4838	35.508	1244.65979	536.32629	1785.82397	1081.59436	-2846.01001	1034.1665	3356.8938
